<svg width="70" height="40" viewBox="0 0 70 40" fill="none" xmlns="http://www.w3.org/2000/svg">
<path d="M39.0849 0C38.9576 0.611064 38.8406 1.22471 38.702 1.83319C38.0901 4.52911 37.4749 7.22446 36.8566 9.9192C36.4987 11.4815 36.1405 13.0449 35.782 14.6095L37.8469 15.1266L44.862 3.5776L45.2432 3.7991C42.9205 7.62061 40.6069 11.4318 38.2744 15.2757L39.4024 15.7463C39.4205 15.754 39.4402 15.7592 39.4592 15.7661C39.6846 15.8523 39.9367 16.0436 40.1277 15.9945C40.3185 15.9454 40.4453 15.6584 40.5949 15.4714C41.9285 13.7959 43.2609 12.1201 44.592 10.4441C45.912 8.78414 47.2264 7.11986 48.5496 5.46425C49.5063 4.26967 50.4767 3.08548 51.4395 1.89783C51.8103 2.15639 51.8003 2.15122 51.5255 2.48562C50.6463 3.56066 49.7727 4.64115 48.9044 5.72709C47.8908 6.99118 46.8796 8.25756 45.8704 9.52621C44.8736 10.7782 43.8781 12.0311 42.8841 13.2848C42.1237 14.238 41.3573 15.1869 40.5941 16.1376C40.5697 16.1678 40.5509 16.2022 40.5209 16.247L42.6229 17.6182L56.7998 3.9258L57.0774 4.27055L42.9565 17.9087C43.3049 18.2354 43.6269 18.5482 43.9657 18.8413C44.0165 18.8852 44.162 18.8628 44.2392 18.8231C46.3404 17.7676 48.4392 16.7081 50.5355 15.6446C52.4391 14.681 54.3434 13.7169 56.2482 12.7522C56.2998 12.7255 56.353 12.7022 56.4262 12.666L56.637 13.0737L44.4036 19.267C44.8216 19.8591 45.2236 20.4374 45.6408 21.0054C45.6768 21.0402 45.7204 21.0663 45.7676 21.082C45.8152 21.0977 45.8656 21.1024 45.9152 21.0959C47.2628 20.8434 48.6072 20.5788 49.9531 20.3202C51.3767 20.0427 52.7999 19.7643 54.223 19.4851C56.1526 19.1076 58.0822 18.7289 60.0121 18.3491C60.8305 18.1888 61.6469 18.0371 62.4693 17.8777C62.8229 17.8079 62.6225 18.125 62.7741 18.2698L45.936 21.5389C46.4004 22.4178 46.7336 23.36 46.9252 24.3356C46.5684 24.3701 46.2372 24.4175 45.9024 24.4305C45.1212 24.4606 44.3372 24.5166 43.5569 24.4856C42.2193 24.4374 40.8821 24.3443 39.5452 24.2529C38.672 24.1934 37.8056 24.0633 37.0003 23.7022C36.7405 23.5797 36.5086 23.4052 36.3188 23.1894C36.0367 22.8713 36.0504 22.4999 36.3825 22.237C36.7516 21.944 37.1792 21.7242 37.587 21.4811C37.7204 21.4019 37.8692 21.3476 38.0766 21.2519C37.9583 21.1275 37.8325 21.0107 37.6997 20.902C36.9254 20.3504 36.041 20.1349 35.1118 20.0254C33.379 19.8203 31.9147 20.5098 30.5312 21.4087C28.4956 22.73 26.281 23.5565 23.9065 24.0185C22.4387 24.3038 20.9718 24.5606 19.4705 24.5546H19.1745C19.1608 24.103 19.5281 22.6981 20.2869 21.3122L5.05859 16.3582C5.10591 16.2126 5.14979 16.0781 5.19627 15.9385L20.5012 20.9158C20.8574 20.4297 21.2032 19.9565 21.5766 19.4454L10.6028 11.9472L10.8548 11.5783L21.8674 19.1067L23.4376 17.6588L9.21759 2.89845L9.5445 2.59508L23.7955 17.3864L25.8431 16.1195C22.3059 11.212 18.7598 6.29075 15.2048 1.35571L15.5575 1.08509L26.2527 15.9273L28.1455 15.1619L21.4673 0.898066L21.8666 0.717074C22.1393 1.29366 22.4086 1.8556 22.6727 2.42012C24.5908 6.51743 26.5065 10.6165 28.4199 14.7172C28.5369 14.9689 28.6402 15.062 28.9215 14.968C29.3517 14.8293 29.8042 14.7405 30.2731 14.6233C29.5237 10.364 28.7727 6.09944 28.0155 1.79958L28.4457 1.73407C28.6014 2.61146 28.7512 3.45781 28.9026 4.30931C29.1177 5.52197 29.3327 6.73375 29.5487 7.9464C29.7578 9.1401 29.9617 10.3346 30.1682 11.5292C30.3308 12.4686 30.4908 13.4089 30.6654 14.3458C30.6812 14.3911 30.7082 14.4318 30.7438 14.4638C30.7795 14.496 30.8227 14.5185 30.8694 14.5294C31.5663 14.4837 32.2623 14.4182 32.9772 14.357C33.0977 9.62533 33.2181 4.89626 33.3394 0.144794H33.7808C33.6586 4.87758 33.5362 9.62189 33.4134 14.3776L35.3467 14.5388C36.4525 9.68593 37.5566 4.83994 38.659 0.000862707L39.0849 0Z" fill="#F4EEED"/>
<path d="M69.1986 26.1833C54.0561 26.158 38.9163 26.133 23.7786 26.1083C15.8524 26.0957 7.9262 26.0805 0 26.0626V26.0023C0.290801 25.4662 0.762277 25.1922 1.34474 25.1008C2.82456 24.869 4.30263 24.6268 5.78764 24.4277C7.68041 24.1734 9.51729 23.6675 11.3404 23.1021C12.6331 22.7006 13.9843 22.5217 15.3367 22.5729C15.6318 22.5841 15.9226 22.7083 16.2659 22.7919C16.025 23.0694 15.8228 23.2642 15.6637 23.49C15.3342 23.9692 15.4365 24.2493 15.9872 24.438C17.2872 24.8759 18.6311 24.9776 19.9861 24.9026C22.2411 24.7785 24.4376 24.3199 26.5937 23.6589C28.0408 23.215 29.3322 22.4523 30.6167 21.6766C31.5158 21.1319 32.4304 20.6079 33.4869 20.4347C34.8634 20.2089 36.1944 20.3709 37.4445 21.0199C37.5176 21.0636 37.5883 21.1114 37.6562 21.1629C37.3 21.3146 36.9601 21.4413 36.6375 21.6034C36.4331 21.7054 36.2449 21.8373 36.0791 21.9946C35.5474 22.504 35.5775 23.115 36.1462 23.5951C36.7011 24.0614 37.3817 24.2415 38.0666 24.3708C40.2096 24.7793 42.3788 24.8724 44.5555 24.8147C46.3691 24.7664 48.179 24.6535 49.9526 24.251C51.595 23.8787 53.2217 23.4245 54.8565 23.0272C55.4373 22.8842 56.0261 22.7771 56.6201 22.7065C57.3548 22.6145 58.0972 22.8018 58.7004 23.2314C58.6832 23.2555 58.6772 23.2754 58.666 23.2788C58.3924 23.3754 58.1172 23.5046 58.0836 23.8192C58.072 23.9723 58.11 24.125 58.192 24.2547C58.274 24.3843 58.3956 24.484 58.5388 24.5389C59.0284 24.7457 59.5428 24.9698 60.0632 25.0163C61.2876 25.1336 62.5223 25.1456 63.7527 25.2146C65.0723 25.2878 66.3939 25.3456 67.7102 25.4774C68.1058 25.5171 68.4846 25.7756 68.863 25.9394C68.9802 25.9902 69.0886 26.0601 69.201 26.1213L69.1986 26.1833Z" fill="#F4EEED"/>
<path d="M5.78118 39.9991L4.55773 39.9078C4.54657 39.7742 4.52161 39.6268 4.52161 39.4769C4.52161 35.9277 4.52161 32.3791 4.52161 28.8311C4.51957 28.6203 4.54241 28.41 4.58957 28.2045C4.60909 28.1529 4.63869 28.1057 4.67665 28.0658C4.71465 28.0258 4.76021 27.9939 4.81068 27.9718C4.92524 27.9361 5.04572 27.9235 5.16516 27.9347C6.61829 27.9347 8.07146 27.9347 9.52459 27.9347C10.0271 27.9347 10.5286 27.9347 11.0302 27.927C11.2272 27.9227 11.3296 27.9796 11.3245 28.1985C11.315 28.5898 11.3245 28.9819 11.3245 29.3741C11.3245 29.6326 11.2195 29.7524 10.9425 29.7464C9.62871 29.7171 8.31493 29.6981 7.00116 29.6817C6.51249 29.6757 6.45569 29.7438 6.44537 30.2342C6.42817 30.9978 6.41181 31.7614 6.38257 32.5242C6.37309 32.7905 6.48837 32.881 6.7396 32.8784C7.48211 32.8706 8.22458 32.8784 8.96708 32.8672C9.17616 32.8672 9.28367 32.9284 9.28023 33.1542C9.27423 33.5937 9.27507 34.0325 9.28539 34.472C9.29059 34.7021 9.18388 34.7547 8.97224 34.7521C8.14202 34.7426 7.31259 34.7521 6.46773 34.7521C6.44105 35.2158 6.40925 35.5941 6.39977 35.9725C6.37053 37.1679 6.35589 38.3642 6.31805 39.5596C6.31373 39.7078 6.20534 39.8535 6.14598 40L5.78118 39.9991Z" fill="#F4EEED"/>
<path d="M36.6966 27.7565C38.0792 27.7565 39.3809 27.7436 40.6835 27.7565C42.0651 27.7737 42.9591 28.5589 43.5151 29.7388C43.7155 30.1637 43.7127 30.6868 43.7783 31.172C43.8095 31.4415 43.8187 31.713 43.8059 31.9839C43.7807 32.8794 43.2035 33.4344 42.5643 33.9361C42.3131 34.1325 42.0367 34.298 41.7675 34.4687C41.4723 34.6557 41.4019 34.8918 41.5715 35.2064C42.2803 36.5251 42.9903 37.8432 43.7015 39.1607C43.7767 39.2994 43.8479 39.4408 43.9599 39.6588C43.6371 39.6959 43.3679 39.7545 43.0995 39.7545C42.0539 39.7545 42.3251 39.9131 41.8483 38.9952C41.1755 37.6912 40.5399 36.3682 39.8533 35.072C39.7492 34.8755 39.4738 34.7333 39.2467 34.6479C39.0617 34.579 38.826 34.6075 38.6212 34.6393C38.4311 34.6695 38.29 34.7652 38.2995 35.0211C38.3511 36.4165 38.3786 37.8136 38.4302 39.209C38.4397 39.4598 38.3674 39.5942 38.1179 39.6037C37.7178 39.6192 37.3169 39.6399 36.9186 39.6209C36.8541 39.6209 36.7465 39.4227 36.7465 39.315C36.7371 38.6324 36.762 37.9489 36.7577 37.2654C36.7411 34.6224 36.721 31.9793 36.6975 29.3363C36.6932 28.845 36.6966 28.3546 36.6966 27.7565ZM38.204 31.2384H38.2427V32.595C38.2427 33.019 38.2909 33.0682 38.7013 33.119C39.5444 33.2242 40.3727 33.2052 41.1963 32.9561C41.5043 32.8639 41.7479 32.7174 41.8407 32.4321C41.9895 32.0099 42.0899 31.5721 42.1399 31.1272C42.2303 30.0266 41.2419 29.2311 40.3891 29.3104C39.8326 29.363 39.2665 29.319 38.7047 29.3173C38.3365 29.3173 38.2057 29.4432 38.2031 29.8215C38.2014 30.2938 38.204 30.7661 38.204 31.2384Z" fill="#F4EEED"/>
<path d="M19.4143 39.7459C18.8602 39.7709 18.3406 39.8062 17.8218 39.8045C17.7272 39.8045 17.5852 39.6666 17.5473 39.5623C17.3271 38.953 17.1172 38.3402 16.9365 37.717C16.8504 37.4154 16.7515 37.2706 16.3971 37.2741C15.3139 37.2835 14.2307 37.2439 13.1475 37.2241C13.0614 37.2241 12.9685 37.2241 12.8653 37.2241C12.6321 37.9316 12.4024 38.6289 12.1718 39.3253C12.1435 39.4115 12.1047 39.4925 12.0815 39.5787C12.0221 39.8002 11.8888 39.8545 11.6616 39.8372C11.253 39.8105 10.8417 39.8295 10.3711 39.8295C10.5251 39.3124 10.655 38.8401 10.8013 38.3755C11.7557 35.3642 12.713 32.3534 13.6731 29.3432C13.8099 28.9122 13.9751 28.4951 14.1214 28.0702C14.1791 27.8978 14.2789 27.8426 14.4604 27.8556C14.7507 27.8777 15.0421 27.8808 15.3328 27.865C15.5505 27.8521 15.6537 27.928 15.7199 28.1348C16.1845 29.5948 16.6554 31.0525 17.1327 32.5079C17.7099 34.2774 18.2941 36.0416 18.8714 37.8127C19.0375 38.3221 19.1941 38.8357 19.3481 39.3494C19.379 39.4799 19.4011 39.6124 19.4143 39.7459ZM13.4512 35.365C13.5372 35.4219 13.5699 35.4615 13.6035 35.4624C14.3236 35.4805 15.0446 35.5227 15.763 35.4986C16.1931 35.484 16.2009 35.4262 16.0805 35.0134C15.7888 34.0196 15.4963 33.0259 15.1951 32.0348C15.1022 31.7288 14.98 31.4314 14.8708 31.1289H14.752C14.3179 32.5435 13.8842 33.9556 13.4512 35.365Z" fill="#F4EEED"/>
<path d="M26.8673 33.8437C26.8673 35.7338 26.8613 37.6238 26.8733 39.5139C26.8733 39.8086 26.783 39.9086 26.4948 39.8854C26.2255 39.8629 25.9527 39.8854 25.6817 39.8776C25.4107 39.8698 25.2868 39.7552 25.2972 39.4682C25.3362 38.3828 25.3666 37.2977 25.3884 36.2129C25.3952 35.8923 25.3729 35.57 25.3488 35.2502C25.3298 35.0063 25.2102 34.8788 24.9366 34.8891C24.2251 34.915 23.5119 34.9193 22.7995 34.9313C22.7299 34.9313 22.6593 34.9313 22.5887 34.9313C22.0226 34.8865 21.9925 34.9107 21.9865 35.4692C21.9615 36.7955 21.9305 38.1211 21.9228 39.4475C21.9228 39.744 21.8221 39.8483 21.5382 39.8216C21.2397 39.7931 20.936 39.7862 20.64 39.7552C20.4507 39.7354 20.3518 39.6397 20.3535 39.4174C20.3879 35.6677 20.4181 31.918 20.4439 28.1683C20.4439 27.7253 20.4611 27.7063 20.8973 27.6788C21.1978 27.6689 21.4986 27.6775 21.7981 27.7046C21.9839 27.7158 22.0476 27.8399 22.0441 28.0166C22.0123 29.5145 21.9865 31.0116 21.9503 32.5095C21.94 32.9405 21.9607 32.962 22.3874 32.9689C22.9191 32.9766 23.45 33.0128 23.9808 33.0215C24.3507 33.0275 24.7207 33.0094 25.0915 32.9982C25.2851 32.993 25.366 32.9008 25.3625 32.6948C25.343 31.4991 25.3298 30.3034 25.323 29.1077C25.323 28.763 25.36 28.4243 25.3488 28.0838C25.3419 27.8511 25.4477 27.7304 25.6482 27.7158C25.9878 27.6864 26.3292 27.6824 26.6694 27.7038C26.8888 27.7201 26.9275 27.9184 26.9275 28.1148C26.9195 29.1698 26.9138 30.2253 26.9103 31.2813C26.9103 32.1355 26.9103 32.9904 26.9103 33.8445L26.8673 33.8437Z" fill="#F4EEED"/>
<path d="M28.6284 33.5507C28.6611 31.7408 28.6973 29.9309 28.7239 28.121C28.7239 27.9003 28.7824 27.8176 29.0242 27.7883C30.7561 27.5754 32.4923 27.846 34.2233 27.7349C34.2836 27.7349 34.3438 27.7349 34.404 27.7349C35.0527 27.7349 35.1714 27.8581 35.1723 28.5105C35.1723 29.5663 35.1723 29.5448 34.1399 29.5181C33.0171 29.4896 31.8944 29.5129 30.7716 29.4999C30.4661 29.4999 30.3225 29.6499 30.3027 29.9222C30.2631 30.4618 30.2416 31.0022 30.2218 31.5426C30.2141 31.7425 30.2356 31.9442 30.2373 32.1459C30.2373 32.5768 30.3087 32.6751 30.7432 32.6958C31.1226 32.713 31.5038 32.6785 31.884 32.6664C32.1344 32.6578 32.3847 32.6423 32.6351 32.6423C33.1032 32.6423 33.1513 32.6759 33.1823 33.1465C33.2055 33.5068 33.1883 33.8696 33.19 34.2316C33.19 34.5048 32.9535 34.485 32.8029 34.5039C32.2961 34.5651 31.7868 34.5979 31.2775 34.628C31.0194 34.6436 30.7544 34.6143 30.4954 34.6375C30.4094 34.6462 30.2657 34.7453 30.2545 34.8185C30.099 35.7796 30.0701 36.757 30.1685 37.7256C30.19 37.9143 30.2829 37.9669 30.4361 37.9747C30.7363 37.991 31.0383 38.0083 31.3377 38.01C32.5319 38.0169 33.7261 38.0152 34.9203 38.0229C35.3452 38.0229 35.3599 38.0462 35.3573 38.4685C35.3573 38.8004 35.3487 39.1321 35.347 39.464C35.347 39.6364 35.2738 39.7053 35.0888 39.7045C33.7157 39.701 32.3426 39.7036 30.9695 39.7122C30.6313 39.7122 30.2949 39.7682 29.9568 39.7751C29.5892 39.7872 29.2212 39.7777 28.8547 39.7467C28.7841 39.7398 28.6826 39.5631 28.6766 39.4623C28.6445 38.4585 28.6241 37.453 28.6155 36.4457C28.6061 35.4813 28.6155 34.516 28.6155 33.5507H28.6284Z" fill="#F4EEED"/>
<path d="M53.6562 27.8468C54.3754 27.6822 55.019 27.6193 55.6642 27.7606C55.7838 27.7874 55.9086 27.933 55.9706 28.0528C56.2982 28.6915 56.5926 29.3456 56.9246 29.9834C57.2386 30.5867 57.5846 31.1693 57.921 31.7588C57.9878 31.8586 58.0614 31.9536 58.141 32.0433C58.1962 31.9571 58.241 31.8985 58.2754 31.8338C58.8777 30.6956 59.4781 29.5519 60.0769 28.4027C60.1421 28.2786 60.2017 28.1511 60.2637 28.0261C60.3549 27.8417 60.4837 27.7219 60.7077 27.7382C61.0765 27.7641 61.4493 27.7589 61.8141 27.8124C62.2853 27.8813 62.3353 28.0184 62.1041 28.4458C61.2065 30.1049 60.3169 31.7675 59.4101 33.4214C59.0421 34.0622 58.8593 34.7931 58.8829 35.5321C58.9257 36.787 58.8829 38.0444 58.9101 39.3002C58.9173 39.6311 58.7769 39.7397 58.5093 39.7484C58.0794 39.7621 57.649 39.7484 57.219 39.7484C57.0466 39.7484 56.9686 39.6665 56.9666 39.4898C56.959 38.7675 56.9366 38.0453 56.9314 37.323C56.9246 36.3491 56.9314 35.3752 56.9238 34.4013C56.9166 34.2919 56.8846 34.1856 56.831 34.0902C55.9394 32.3573 55.0462 30.6249 54.1506 28.8931C53.9802 28.5665 53.8366 28.2304 53.6562 27.8468Z" fill="#F4EEED"/>
<path d="M52.5827 27.809C52.5827 28.3261 52.5827 28.8001 52.5827 29.2742C52.5827 29.4611 52.4775 29.4999 52.3099 29.5025C51.5683 29.5146 50.826 29.5405 50.084 29.5585C49.7236 29.5672 49.6292 29.662 49.6256 30.0231C49.6032 32.6449 49.58 35.2667 49.556 37.8885C49.5508 38.4108 49.5196 38.9331 49.512 39.4554C49.512 39.6217 49.4484 39.7001 49.284 39.6941C48.7532 39.6751 48.2216 39.6613 47.6916 39.6269C47.65 39.6137 47.6124 39.5903 47.582 39.5586C47.552 39.527 47.5304 39.4882 47.5192 39.4459C47.474 39.0683 47.4504 38.6885 47.448 38.3082C47.4852 35.6359 47.5276 32.9641 47.5744 30.2929C47.5744 30.242 47.5744 30.192 47.5744 30.1421C47.5744 29.6146 47.5144 29.5387 46.9892 29.5043C46.32 29.462 45.6497 29.431 44.9797 29.4293C44.7097 29.4293 44.6201 29.3284 44.6233 29.0845C44.6277 28.7639 44.6113 28.4416 44.6313 28.1218C44.6545 27.7633 44.7301 27.7254 45.0793 27.7271C47.3664 27.7391 49.6532 27.7426 51.9399 27.7538C52.1455 27.7555 52.3519 27.7883 52.5827 27.809Z" fill="#F4EEED"/>
</svg>
