<svg width="386" height="40" viewBox="0 0 386 40" fill="none" xmlns="http://www.w3.org/2000/svg">
<path fill-rule="evenodd" clip-rule="evenodd" d="M180.528 0.521897C180.028 1.21354 177.982 2.62359 177.48 2.62359C176.616 2.62359 176.42 3.29828 176.879 4.69678L177.305 5.99509L176.889 7.05471C176.66 7.63749 176.057 9.28471 175.549 10.7152C175.04 12.1457 174.277 14.2697 173.853 15.4353C173.429 16.6009 172.72 18.5515 172.278 19.7701C171.836 20.9886 171.128 22.9393 170.704 24.1049C170.28 25.2704 169.587 27.1777 169.163 28.3433C168.739 29.5089 168.045 31.4162 167.62 32.5818C167.195 33.7473 166.56 35.5246 166.209 36.5312L165.571 38.3615L164.156 38.479C162.612 38.6073 161.875 38.7944 161.875 39.0583C161.875 39.1525 164.195 39.2284 167.077 39.2284C173.311 39.2284 174.466 38.7287 168.714 38.5195C165.975 38.4197 166.007 38.4405 166.522 37.1015C166.744 36.523 167.256 35.1393 167.659 34.0267C168.063 32.9141 168.755 31.0068 169.197 29.7882C169.64 28.5697 170.28 26.7793 170.619 25.8099C171.537 23.1878 170.817 23.4306 177.673 23.4306C184.194 23.4306 183.858 23.3687 184.341 24.657C184.466 24.9892 184.759 25.7376 184.993 26.3204C185.228 26.9032 185.67 28.052 185.977 28.8731C186.284 29.6942 186.803 31.0815 187.132 31.9556C187.46 32.8297 187.94 34.1404 188.198 34.868C188.456 35.5957 188.784 36.4193 188.927 36.6983C189.069 36.9772 189.246 37.4874 189.321 37.8317L189.455 38.4578H187.672C185.984 38.4578 184.608 38.7349 184.608 39.0745C184.608 39.1591 187.903 39.2284 191.929 39.2284C196.504 39.2284 199.25 39.1587 199.25 39.0425C199.25 38.6801 198.489 38.4578 197.247 38.4578C195.814 38.4578 195.885 38.5266 195.136 36.4164C194.876 35.6849 194.403 34.3927 194.084 33.5451C193.765 32.6974 193.245 31.3102 192.929 30.4625C192.613 29.6149 192.163 28.4445 191.929 27.8617C191.695 27.2789 191.26 26.1518 190.963 25.3571C190.278 23.5302 189.392 21.1603 188.674 19.2403C188.367 18.419 187.925 17.2703 187.691 16.6876C187.457 16.1048 187.007 14.9344 186.691 14.0867C186.375 13.239 185.871 11.8952 185.572 11.1005C185.272 10.3058 184.752 8.91866 184.416 8.01799C183.025 4.2922 182.702 3.44065 182.296 2.43094C182.062 1.84815 181.759 1.07097 181.622 0.703765C181.293 -0.181687 181.065 -0.219447 180.528 0.521897ZM4.2813 0.465449C4.2813 0.680261 5.08025 0.87523 6.55042 1.01915C7.65087 1.12684 7.8628 1.3667 8.59181 3.32814C8.74305 3.73542 9.05611 4.56943 9.2875 5.18189C9.73427 6.36422 9.73581 7.05528 9.29886 10.0891C9.18828 10.8572 9.01103 12.0927 8.90507 12.8344C8.79911 13.5761 8.62572 14.7899 8.51976 15.5316C8.4138 16.2733 8.24195 17.4653 8.1381 18.1807C8.03407 18.896 7.85894 20.1313 7.74913 20.926C7.49482 22.7655 7.2147 24.7262 6.9785 26.3204C6.87639 27.0092 6.70782 28.1796 6.60359 28.9213C6.49936 29.663 6.32135 30.8334 6.20787 31.5222C5.85955 33.6385 5.61776 35.4169 5.5093 36.6601C5.37713 38.176 5.13015 38.3965 3.41434 38.5306C-2.00279 38.9535 -0.902716 39.2284 6.20787 39.2284C13.8265 39.2284 14.4946 38.9477 7.94179 38.4998L5.91889 38.3615L5.9736 37.7835C6.00366 37.4656 6.11443 36.5987 6.21982 35.8569C6.32501 35.1152 6.4932 33.8581 6.59319 33.0634C6.7843 31.5457 7.05075 29.6064 7.36747 27.4282C7.47132 26.7129 7.64317 25.5209 7.74913 24.7792C7.85509 24.0374 8.02848 22.8237 8.13444 22.082C8.2404 21.3402 8.4138 20.1265 8.51976 19.3848C8.62572 18.643 8.79757 17.4511 8.90141 16.7357C9.22816 14.489 9.48747 12.5961 9.67358 11.1005C10.1452 7.30824 10.2309 7.25661 11.2464 10.1528C11.6337 11.2568 12.2188 12.8755 12.5469 13.7495C12.875 14.6236 13.4036 16.0325 13.7215 16.8802C14.0394 17.7279 14.552 19.0933 14.8607 19.9146C15.1695 20.7359 15.6972 22.1446 16.0334 23.0452C16.3696 23.9459 16.9053 25.3764 17.2238 26.2241C17.5425 27.0718 18.1337 28.6756 18.5379 29.7882C18.9421 30.9008 19.5494 32.5481 19.8875 33.4487C20.2254 34.3494 20.7126 35.6793 20.9698 36.4043C22.4681 40.6244 22.0011 41.3386 26.5047 27.9426C34.1948 5.06918 34.2971 4.74282 33.7888 4.74282C33.5958 4.74282 33.1799 5.6065 33.1799 6.00723C33.1799 6.26154 25.4871 29.5746 25.337 29.7753C25.2129 29.9412 24.8253 29.4002 24.5567 28.6866C24.4061 28.2859 23.9533 27.0477 23.5507 25.9351C23.1482 24.8225 22.6263 23.4354 22.3911 22.8526C22.1558 22.2698 21.6341 20.8827 21.2318 19.7701C20.8294 18.6575 20.2397 17.0536 19.921 16.2059C19.6025 15.3582 19.0743 13.9493 18.7473 13.0752C17.9902 11.0518 17.15 8.81116 16.4355 6.91021C14.4644 1.66724 14.4894 1.85296 15.7558 1.85296C16.2264 1.85296 16.6114 1.77609 16.6114 1.68208C16.6114 1.41332 15.5643 1.24667 12.7582 1.06924C11.3277 0.97888 9.37708 0.815506 8.42343 0.706463C5.03632 0.318836 4.2813 0.274911 4.2813 0.465449ZM42.1552 0.456201C41.9993 0.613024 39.6907 0.815121 35.2991 1.05633C31.5833 1.26054 30.1453 1.76993 32.939 1.89227L34.2395 1.94929L34.2986 2.76809C34.3337 3.25262 34.2747 3.58688 34.1541 3.58688C34.0422 3.58688 33.9505 3.76027 33.9505 3.97219C33.9505 4.18412 34.0372 4.35751 34.1431 4.35751C34.2491 4.35751 34.3358 4.18412 34.3358 3.97219C34.3358 3.76027 34.4138 3.58688 34.509 3.58688C34.7057 3.58688 34.8531 4.52839 35.1126 7.44002C35.3313 9.89332 35.6087 12.6905 35.8771 15.1463C35.9871 16.1529 36.1605 17.8002 36.2624 18.8068C36.3643 19.8134 36.5377 21.4606 36.6477 22.4673C36.7577 23.4739 36.9311 25.1211 37.033 26.1278C37.2303 28.0755 37.4836 30.4038 37.814 33.3042C37.9256 34.2845 38.034 35.8232 38.0549 36.7239L38.0926 38.3615L36.455 38.499C33.7104 38.7297 32.7945 38.8718 32.7945 39.0672C32.7945 39.1834 33.5405 39.2092 34.7693 39.1354C35.8553 39.0703 39.4965 38.9753 42.8609 38.9248C46.6335 38.868 48.9777 38.7609 48.9777 38.6453C48.9777 38.5356 48.1397 38.4578 46.9616 38.4578C44.558 38.4578 44.5428 38.4439 44.3054 36.0496C44.2212 35.2019 44.0688 33.7714 43.9665 32.8708C43.8644 31.9701 43.6949 30.4529 43.5901 29.4993C43.4853 28.5456 43.3088 27.0284 43.198 26.1278C43.0873 25.2271 42.9139 23.7533 42.8127 22.8526C42.7116 21.9519 42.5382 20.4781 42.4274 19.5774C42.3166 18.6767 42.1401 17.1596 42.0353 16.2059C41.725 13.3833 41.4857 11.3009 41.2715 9.55925C40.2246 1.04901 40.208 1.18599 42.2985 1.01876C43.8342 0.895845 44.7393 0.697022 44.7393 0.482595C44.7393 0.275874 42.3588 0.251599 42.1552 0.456201ZM62.8491 0.463907C62.8491 0.668702 63.5128 0.838047 65.1317 1.04612C66.088 1.16922 66.1799 1.22702 66.4119 1.85296C66.5492 2.22383 66.8525 3.00409 67.0858 3.58688C68.1296 6.19546 68.2803 6.70889 68.15 7.21423C68.0772 7.49724 67.9367 8.33588 67.8379 9.07761C67.658 10.4283 67.4378 11.99 67.0838 14.4238C66.98 15.1392 66.8082 16.3311 66.7022 17.0729C66.5962 17.8146 66.4228 19.0283 66.3169 19.7701C66.2109 20.5118 66.0375 21.7255 65.9316 22.4673C65.8256 23.209 65.6538 24.401 65.5499 25.1163C65.4459 25.8316 65.2708 27.067 65.1609 27.8617C64.9415 29.4492 64.6776 31.3041 64.3866 33.3042C64.2828 34.0196 64.1217 35.1898 64.0289 35.9051C63.7131 38.337 63.7098 38.3414 62.0655 38.4963C57.0788 38.966 58.1195 39.2284 64.9683 39.2284C72.4031 39.2284 73.0052 38.9439 66.5095 38.4998L64.4866 38.3615L64.5242 37.3019C64.5448 36.7191 64.6556 35.592 64.7704 34.7973C64.8851 34.0026 65.0609 32.7022 65.1609 31.9075C65.3998 30.0094 65.8707 26.6356 66.3169 23.6232C66.419 22.9345 66.5924 21.7207 66.7022 20.926C66.812 20.1313 66.9854 18.9176 67.0875 18.2288C67.6318 14.555 68.0294 11.648 68.2001 10.0973C68.4642 7.6978 68.8802 7.82938 69.8496 10.6189C70.6027 12.7859 71.7741 16.0206 72.6401 18.3251C73.4057 20.3627 74.2397 22.5867 74.9697 24.5383C75.2968 25.4124 75.817 26.7997 76.1256 27.6209C76.4345 28.442 76.9621 29.8509 77.2983 30.7515C77.6345 31.6522 78.1547 33.0393 78.4543 33.834C78.7539 34.6288 79.2611 36.0074 79.5815 36.8977C80.5883 39.6949 80.8565 39.6812 81.8737 36.7803C82.6532 34.5569 92.0158 6.47423 92.4853 4.95051C92.9658 3.39172 93.2396 3.48824 93.3671 5.26165C93.5545 7.8683 94.0321 12.9267 94.4412 16.6394C94.549 17.6196 94.7259 19.2233 94.8338 20.2036C94.9419 21.1838 95.1135 22.8092 95.2154 23.8159C95.3174 24.8225 95.4907 26.4697 95.6008 27.4764C95.7108 28.483 95.8842 30.1302 95.9861 31.1368C96.088 32.1435 96.2614 33.7907 96.3716 34.7973C96.4816 35.804 96.5916 37.0177 96.6161 37.4945L96.6604 38.3615L94.8301 38.4979C92.0356 38.706 90.977 38.8622 90.977 39.0664C90.977 39.182 91.7985 39.2082 93.1444 39.136C94.3365 39.0718 97.9776 38.9772 101.236 38.9258C107.06 38.8339 109.365 38.5291 105.089 38.4162L103.018 38.3615L102.869 37.0129C102.546 34.0814 102.344 32.3182 102.151 30.7515C102.04 29.8509 101.867 28.377 101.766 27.4764C101.665 26.5757 101.491 25.1019 101.38 24.2012C101.27 23.3005 101.093 21.7833 100.988 20.8297C100.678 18.0071 100.439 15.9246 100.225 14.183C100.114 13.2823 99.9404 11.8085 99.8392 10.9078C99.7381 10.0072 99.5647 8.53335 99.4539 7.63268C99.3431 6.73201 99.1767 5.25818 99.0842 4.35751C98.9917 3.45684 98.8573 2.50068 98.7854 2.23288C98.5931 1.51601 99.1341 1.13628 100.514 1.01953C102.072 0.887753 102.922 0.692206 102.922 0.465449C102.922 0.2778 102.652 0.292828 98.5869 0.706655C97.5273 0.814543 95.4033 0.971944 93.8668 1.05633C92.3304 1.1409 90.8783 1.27808 90.6398 1.3613C89.8432 1.63931 90.1938 1.85296 91.4473 1.85296C92.1298 1.85296 92.7296 1.92001 92.7803 2.00208C92.8714 2.14927 91.2741 7.1075 86.7771 20.637C83.226 31.3206 83.7084 30.661 82.2704 26.8021C81.9545 25.9544 81.4435 24.5888 81.1347 23.7677C80.8261 22.9464 80.3059 21.5593 79.9788 20.6852C79.6518 19.8111 79.1392 18.4456 78.8396 17.6508C77.7353 14.7211 77.0521 12.8818 76.335 10.9078C75.9309 9.79525 75.3321 8.16981 75.0044 7.29553C73.8446 4.20203 73.2252 2.52322 73.1208 2.19011C73.0287 1.89651 73.1547 1.85296 74.097 1.85296C74.6923 1.85296 75.1791 1.77609 75.1791 1.68208C75.1791 1.40542 74.1031 1.24243 71.1333 1.06924C68.632 0.923394 67.2258 0.792773 63.8605 0.394358C63.2452 0.321341 62.8491 0.348698 62.8491 0.463907ZM127.582 0.884478C127.582 0.995256 128.745 1.0939 130.42 1.1253L133.259 1.17867L133.442 1.94929C133.767 3.31774 133.803 36.601 133.48 37.5579L133.209 38.3615L131.022 38.4852C128.627 38.6206 127.582 38.7946 127.582 39.0576C127.582 39.1554 134.191 39.2284 143.061 39.2284C160.443 39.2284 159.024 39.355 159.243 37.7835C159.345 37.0528 159.52 36.1163 159.963 33.9304C160.071 33.4006 160.237 32.4903 160.332 31.9075C160.428 31.3247 160.592 30.33 160.698 29.6971C160.984 27.9805 160.768 28.0085 159.528 29.8484C159.086 30.504 158.671 31.0839 158.605 31.1368C158.539 31.1898 158.276 31.5366 158.022 31.9075C157.767 32.2783 157.505 32.6251 157.438 32.6781C157.372 32.7311 156.941 33.3379 156.48 34.0267C156.02 34.7154 155.588 35.3223 155.522 35.3753C155.456 35.4283 155.193 35.7751 154.938 36.1459C154.682 36.5168 154.086 37.1897 153.613 37.6415L152.753 38.463L146.381 38.4122L140.008 38.3615L139.959 20.0752C139.901 -1.47808 139.475 1.08234 143.121 1.08234C144.706 1.08234 145.692 1.00855 145.692 0.889679C145.692 0.764067 142.545 0.697022 136.637 0.697022C130.894 0.697022 127.582 0.765608 127.582 0.884478ZM201.947 0.889679C201.947 1.00855 202.933 1.08234 204.518 1.08234C208.164 1.08234 207.738 -1.47808 207.68 20.0752L207.631 38.3615L205.223 38.4842C202.613 38.6173 201.562 38.7848 201.562 39.0674C201.562 39.1764 202.723 39.2036 204.5 39.136C208.212 38.9949 213.228 38.9949 217.505 39.1362C219.529 39.2032 220.828 39.1753 220.828 39.0649C220.828 38.8069 219.579 38.6376 216.589 38.49L213.989 38.3615V29.2103V20.0591H220.25H226.511L226.608 22.6599C226.701 25.1924 226.809 25.7424 227.211 25.7424C227.337 25.7424 227.363 25.113 227.286 23.9604C227.22 22.9801 227.166 21.0079 227.166 19.5774C227.166 18.1469 227.22 16.1747 227.286 15.1945C227.363 14.0418 227.337 13.4124 227.211 13.4124C226.809 13.4124 226.701 13.9624 226.608 16.4949L226.511 19.0958H220.25H213.989V10.1372V1.17867L219.287 1.19947C226.189 1.22644 226.592 1.35572 228.532 4.16485C228.788 4.53572 229.136 4.96919 229.305 5.12814C229.474 5.28708 229.821 5.72056 230.075 6.09142C230.33 6.46229 230.59 6.80907 230.653 6.86205C230.717 6.91503 230.977 7.26181 231.232 7.63268C231.486 8.00354 231.833 8.43702 232.002 8.59596C232.171 8.75491 232.506 9.16661 232.747 9.51108C233.605 10.7393 233.706 10.1141 233.168 6.91021C233.056 6.24805 232.875 5.16436 232.764 4.502C232.654 3.83984 232.515 2.86441 232.456 2.33461C232.257 0.542511 233.73 0.697022 216.849 0.697022C207.043 0.697022 201.947 0.762911 201.947 0.889679ZM235.855 0.884478C235.855 0.995256 237.019 1.0939 238.697 1.1253L241.539 1.17867L241.713 2.14195C241.951 3.44797 241.954 36.5969 241.717 37.5909L241.533 38.3615L239.32 38.4852C236.904 38.6202 235.855 38.7934 235.855 39.0576C235.855 39.1554 242.464 39.2284 251.334 39.2284C268.716 39.2284 267.298 39.355 267.517 37.7835C267.576 37.3597 267.719 36.5361 267.835 35.9533C267.951 35.3705 268.125 34.4168 268.222 33.834C268.318 33.2513 268.484 32.3409 268.59 31.8111C269.246 28.5529 269.238 28.0071 268.542 28.8473C267.644 29.9323 267.478 30.1543 266.674 31.3478C266.217 32.0265 265.788 32.6251 265.722 32.6781C265.656 32.7311 265.394 33.0779 265.139 33.4487C264.884 33.8196 264.622 34.1664 264.556 34.2194C264.49 34.2723 264.058 34.8792 263.595 35.568C263.133 36.2567 262.366 37.1897 261.891 37.6415L261.027 38.463L254.654 38.4122L248.282 38.3615V19.7701V1.17867L251.123 1.1253C252.801 1.0939 253.965 0.995256 253.965 0.884478C253.965 0.765608 250.652 0.697022 244.91 0.697022C239.168 0.697022 235.855 0.765608 235.855 0.884478ZM270.533 0.888524C270.533 1.00874 271.508 1.08234 273.104 1.08234C276.75 1.08234 276.324 -1.47808 276.266 20.0752L276.217 38.3615L274.001 38.4852C271.58 38.6204 270.533 38.7934 270.533 39.0587C270.533 39.1585 277.142 39.2099 286.283 39.1814L302.033 39.1321L302.166 38.0725C302.24 37.4897 302.396 36.5361 302.512 35.9533C302.718 34.9266 302.899 33.8807 303.271 31.5703C303.369 30.9611 303.509 30.224 303.582 29.9327C303.819 28.9912 303.035 29.433 302.129 30.7515C301.874 31.1224 301.614 31.4692 301.551 31.5222C301.488 31.5751 301.228 31.9219 300.973 32.2928C300.719 32.6636 300.458 33.0104 300.395 33.0634C300.332 33.1164 300.072 33.4632 299.817 33.834C299.563 34.2049 299.302 34.5517 299.239 34.6047C299.176 34.6577 298.916 35.0044 298.661 35.3753C298.406 35.7462 298.06 36.1796 297.891 36.3386C297.722 36.4975 297.386 36.9106 297.144 37.2566C296.3 38.464 296.271 38.4682 289.081 38.4122L282.574 38.3615V29.2103V20.0591H288.643H294.712L294.808 23.0452C294.888 25.5284 294.953 26.0314 295.194 26.0314C295.425 26.0314 295.47 25.802 295.421 24.8755C295.387 24.2397 295.359 21.8556 295.359 19.5774C295.359 17.2992 295.387 14.9151 295.421 14.2793C295.47 13.3529 295.425 13.1234 295.194 13.1234C294.953 13.1234 294.888 13.6264 294.808 16.1096L294.712 19.0958H288.643H282.574V10.1372V1.17867L287.776 1.12549C294.459 1.0571 295.289 1.34936 297.502 4.55016C297.759 4.92103 298.107 5.35451 298.276 5.51345C298.445 5.67239 298.792 6.10587 299.047 6.47674C299.302 6.8476 299.648 7.28108 299.817 7.44002C299.986 7.59896 300.334 8.03244 300.59 8.40331C301.46 9.66463 302.798 10.6923 302.409 9.80007C302.328 9.61473 302.188 8.96452 302.099 8.35514C301.86 6.72295 301.596 5.16917 301.356 3.97219C301.24 3.38941 301.084 2.43575 301.01 1.85296L300.877 0.793351L285.705 0.744031C275.626 0.711279 270.533 0.759829 270.533 0.888524ZM304.826 0.884478C304.826 0.995256 305.991 1.0939 307.668 1.1253L310.51 1.17867L310.637 13.2197C310.813 29.8229 311.137 32.2984 313.494 34.99C313.725 35.2549 314.043 35.6884 314.2 35.9533C314.61 36.6461 317.644 38.5807 318.89 38.9439C319.473 39.1138 320.216 39.334 320.542 39.4332C320.867 39.5325 321.49 39.6138 321.927 39.6138C322.364 39.6138 322.774 39.7005 322.84 39.8064C322.998 40.0625 327.883 40.0625 328.042 39.8064C328.107 39.7005 328.509 39.6138 328.934 39.6138C330.286 39.6138 333.452 38.4083 334.496 37.4963C334.76 37.2647 335.204 36.941 335.481 36.7771C335.758 36.6131 336.119 36.2523 336.283 35.9752C336.447 35.6984 336.77 35.2549 337.002 34.99C337.818 34.0569 338.735 31.8204 339.175 29.6919C339.294 29.1155 339.42 23.2755 339.488 15.1496L339.601 1.57053L340.372 1.3981C340.795 1.30331 342.074 1.18811 343.213 1.14206C347.611 0.964238 345.152 0.697022 339.119 0.697022C335.138 0.697022 332.954 0.765223 332.954 0.889679C332.954 1.00701 333.839 1.08349 335.218 1.08523C336.648 1.08715 337.766 1.18695 338.252 1.35629L339.023 1.62447L339.003 14.0206C338.98 28.1798 338.962 28.3949 337.613 31.0679C335.915 34.4317 333.084 35.8579 327.656 36.085C326.491 36.1338 325.234 36.0868 324.863 35.9806C321.875 35.1248 321.914 35.1416 320.727 34.2236C319.402 33.1996 317.877 30.7964 317.486 29.1172C316.928 26.7198 316.737 14.8908 317.101 5.22446L317.253 1.17867L320.094 1.1253C321.772 1.0939 322.936 0.995256 322.936 0.884478C322.936 0.765608 319.624 0.697022 313.881 0.697022C308.139 0.697022 304.826 0.765608 304.826 0.884478ZM347.982 0.886404C347.982 1.00951 348.938 1.08234 350.553 1.08234C354.198 1.08234 353.772 -1.47808 353.714 20.0752L353.665 38.3615L351.257 38.4842C348.648 38.6173 347.596 38.7848 347.596 39.0674C347.596 39.1764 348.757 39.2036 350.534 39.136C354.307 38.9926 359.473 38.9926 362.961 39.136C364.624 39.2044 365.706 39.1774 365.706 39.0678C365.706 38.7934 364.684 38.6216 362.238 38.4852L360.023 38.3615L359.973 29.3182C359.944 24.227 359.997 20.2001 360.094 20.1038C360.583 19.6146 363.984 22.2835 365.315 24.2012C365.573 24.5721 365.838 24.9188 365.904 24.9718C366.12 25.1452 367.55 27.3359 368.923 29.5956C371.904 34.5045 373.22 36.5494 373.732 37.068C373.867 37.2044 374.124 37.5647 374.303 37.8687C375.042 39.1184 375.56 39.2284 380.711 39.2284C383.68 39.2284 385.357 39.1589 385.357 39.0358C385.357 38.9298 385.204 38.8431 385.017 38.8431C384.561 38.8431 382.709 38.1578 382.314 37.8429C381.624 37.2932 380.028 35.6271 379.581 34.99C379.321 34.6191 379.011 34.2153 378.893 34.0926C378.774 33.9697 378.39 33.4061 378.04 32.8403C377.689 32.2743 376.647 30.6408 375.724 29.2103C374.801 27.7798 373.759 26.1463 373.409 25.5802C373.058 25.0144 372.674 24.4509 372.556 24.328C372.437 24.2052 372.127 23.8014 371.867 23.4306C371.26 22.5638 370.033 21.3389 369.174 20.7401C368.022 19.9373 367.918 19.5786 368.837 19.5749C371.923 19.5622 376.198 16.5768 377.234 13.7108C379.262 8.09717 376.509 2.66617 371.004 1.42469C370.58 1.32913 369.8 1.15555 369.27 1.03918C367.975 0.754434 347.982 0.610905 347.982 0.886404ZM365.417 1.40985C369.746 2.21285 371.963 6.60177 371.14 12.7381C370.494 17.5586 368.059 19.3963 362.238 19.4578L360.023 19.4811L359.972 10.5225C359.945 5.59533 359.966 1.45031 360.019 1.31141C360.129 1.02492 363.692 1.08985 365.417 1.40985ZM177.803 7.29553C177.888 7.42808 178.145 8.05652 178.374 8.69229C179.023 10.4907 179.902 12.8261 180.37 13.9904C181.919 17.8495 183.497 22.4598 183.376 22.7749C183.22 23.1797 172.124 23.1766 171.968 22.7717C171.869 22.5108 172.264 21.2896 173.629 17.6508C174.187 16.1622 175.924 11.2785 176.968 8.26074C177.393 7.03313 177.533 6.8711 177.803 7.29553ZM53.2162 32.9648C50.7612 33.8412 49.9098 36.7331 51.5786 38.5276C53.0756 40.1372 54.3299 40.4025 55.9134 39.444C58.6667 37.7775 58.3218 34.155 55.305 33.0522C54.156 32.6322 54.1485 32.6321 53.2162 32.9648ZM111.533 33.0665C108.603 34.1802 108.307 37.8062 111.013 39.444C114.539 41.5783 118.065 36.8794 115.136 33.95C113.931 32.7453 112.987 32.5138 111.533 33.0665Z" fill="#F4EEED"/>
</svg>
