<svg width="328" height="40" viewBox="0 0 328 40" fill="none" xmlns="http://www.w3.org/2000/svg">
<path fill-rule="evenodd" clip-rule="evenodd" d="M114.333 10.9257C115.032 10.9257 115.775 11.1162 116.276 11.421L116.602 11.621V15.08H114.606C111.472 15.08 109.448 17.1181 109.448 20.2686V32.5524H104.987V11.3219H109.448V13.0114C110.893 11.7124 112.686 10.9257 114.333 10.9257ZM79.7676 19.3638C86.7676 20.8305 88.1771 23.0457 88.1771 26.1448C88.1771 30.2152 84.5467 32.9486 79.1429 32.9486C73.7524 32.9486 70.0762 29.8057 69.9905 25.1257L69.979 24.4267H74.2381L74.2571 25.0933C74.3238 27.341 76.2419 28.7943 79.1429 28.7943C81.8591 28.7943 83.7562 27.7714 83.7562 26.3048C83.7562 25.301 82.9448 24.5295 78.7981 23.5619C74.1314 22.4952 71.2362 21.0781 71.2362 17.3314C71.2362 13.499 74.4133 10.9257 79.1429 10.9257C82.9143 10.9257 86.2171 13.1352 87.36 16.4267L87.6095 17.1429L83.4438 18.1905L83.2457 17.5886C82.7562 16.0876 81.1067 15.08 79.1429 15.08C77.0819 15.08 75.6952 15.8895 75.6952 17.0933C75.6952 17.8743 76.3771 18.5276 79.7676 19.3619V19.3638ZM96.9657 26.781C96.9657 28.0229 97.661 28.7943 98.7791 28.7943H102.836V32.4057L102.322 32.5314C101.305 32.781 99.96 32.9486 98.9733 32.9486C95.1067 32.9486 92.5048 30.4705 92.5048 26.781V15.4781H89.3943V11.3219H92.5048V3.93714H96.9657V11.3219H102.642V15.4781H96.9657V26.781V26.781ZM51.0667 10.9257C56.3067 10.9257 59.8286 14.3924 59.8286 19.5543V32.5524H55.3714V20.1105C55.3714 17.0552 53.4667 15.0819 50.5238 15.0819C47.5791 15.0819 45.6781 17.0552 45.6781 20.1105V32.5524H41.2171V11.3219H45.6781V12.9067C47.1791 11.6857 49.1829 10.9257 51.0686 10.9257H51.0667ZM14.8667 25.581L23.9086 3.93524H29.7352V32.5524H24.8857V12.4248L16.6381 32.5524H13.0952L4.84762 12.4248V32.5524H0V3.93714H5.82667L14.8667 25.5829V25.581ZM33.44 32.5505V11.3238H37.901V32.5524H33.44V32.5505ZM127.006 24.7067L132.149 11.3219H136.943L125.914 39.9352H121.12L124.69 30.6743L117.027 11.3219H121.789L127.006 24.7067V24.7067ZM33.44 9.67809V3.93714H37.901V9.68H33.44V9.67809ZM63.1486 32.5524V11.3238H67.6076V32.5524H63.1486ZM63.1486 9.68V3.93714H67.6076V9.68H63.1486ZM279.966 21.9371C279.966 17.7714 277.558 15.08 273.834 15.08C270.11 15.08 267.705 17.7714 267.705 21.9371C267.705 26.1029 270.11 28.7943 273.834 28.7943C277.558 28.7943 279.966 26.1029 279.966 21.9371ZM274.147 10.9257C280.295 10.9257 284.425 15.3505 284.425 21.9352C284.425 28.5238 280.295 32.9486 274.147 32.9486C271.823 32.9486 269.419 31.939 267.705 30.3238V39.9371H263.246V11.3238H267.703V13.5524C269.419 11.9371 271.823 10.9257 274.147 10.9257V10.9257ZM286.81 32.5524V3.93714H291.269V32.5524H286.81ZM256.402 21.9371C256.402 17.7714 253.994 15.08 250.272 15.08C246.549 15.08 244.141 17.7714 244.141 21.9371C244.141 26.1029 246.549 28.7943 250.272 28.7943C253.994 28.7943 256.402 26.1029 256.402 21.9371ZM250.583 10.9257C256.731 10.9257 260.861 15.3505 260.861 21.9352C260.861 28.5238 256.731 32.9486 250.583 32.9486C248.259 32.9486 245.855 31.939 244.141 30.3238V39.9371H239.682V11.3238H244.141V13.5524C245.855 11.9371 248.259 10.9257 250.583 10.9257V10.9257ZM302.838 24.7086L307.981 11.3238H312.775L301.747 39.9371H296.954L300.522 30.6762L292.861 11.3238H297.623L302.838 24.7086V24.7086ZM178.103 3.54095C178.956 3.54095 179.891 3.7219 180.486 4L180.878 4.18476V7.81333H178.335C177.234 7.81333 176.522 8.58857 176.522 9.78667V11.3219H180.878V15.4781H176.522V32.5524H172.061V15.4781H168.952V11.3219H172.063V9.78667C172.063 6.05143 174.491 3.53905 178.105 3.53905L178.103 3.54095ZM231.905 23.7638V11.3219H236.364V32.5524H231.905V30.9695C230.402 32.1886 228.4 32.9505 226.514 32.9505C221.272 32.9505 217.752 29.48 217.752 24.32V11.3219H222.21V23.7638C222.21 26.819 224.114 28.7924 227.057 28.7924C230.002 28.7924 231.905 26.819 231.905 23.7638V23.7638ZM163.274 21.9352C163.274 17.8362 160.874 15.08 157.299 15.08C153.67 15.08 151.326 17.7714 151.326 21.9371C151.326 26.1029 153.669 28.7943 157.299 28.7943C160.93 28.7943 163.274 26.1029 163.274 21.9371V21.9352ZM157.299 10.9257C163.541 10.9257 167.733 15.3505 167.733 21.9352C167.733 28.5238 163.541 32.9486 157.299 32.9486C151.057 32.9486 146.865 28.5238 146.865 21.9371C146.865 15.3505 151.057 10.9257 157.299 10.9257V10.9257ZM204.15 15.2705C212.432 17.261 215.368 19.5752 215.368 24.1219C215.368 29.4019 210.657 32.9486 203.65 32.9486C196.291 32.9486 191.349 28.7467 191.349 22.4914V21.8057H196.004V22.4914C196.004 26.0248 199.076 28.3962 203.65 28.3962C207.758 28.3962 210.518 26.6781 210.518 24.1219C210.518 22.5581 209.312 21.3657 203.147 19.9067C196.83 18.4019 193.175 16.6019 193.175 11.8514C193.175 6.88 197.385 3.54095 203.651 3.54095C208.956 3.54095 213.328 6.89333 214.531 11.8857L214.691 12.5543L210.177 13.6781L210.029 12.9924C209.4 10.061 206.834 8.09143 203.65 8.09143C200.286 8.09143 198.025 9.60381 198.025 11.8514C198.025 13.1124 199.027 14.0762 204.15 15.2705V15.2705ZM321.112 7.30476C322.242 7.30476 323.16 6.36952 323.16 5.21905C323.16 4.06857 322.242 3.13333 321.112 3.13333C319.985 3.13333 319.065 4.06857 319.065 5.21905C319.065 6.36952 319.985 7.30476 321.112 7.30476ZM321.112 0C323.937 0 326.236 2.34286 326.236 5.21905C326.236 8.09714 323.937 10.4381 321.112 10.4381C318.29 10.4381 315.991 8.09714 315.991 5.21905C315.991 2.34286 318.29 0 321.114 0H321.112Z" fill="#F4EEED"/>
</svg>
