<svg width="377" height="40" viewBox="0 0 377 40" fill="none" xmlns="http://www.w3.org/2000/svg">
<g clip-path="url(#clip0)">
<path d="M24.7911 0.536572V7.11321H16.1117V39.4489H8.67942V7.11321H0V0.536572H24.7911ZM27.8002 39.4489L37.4477 0.536572H46.9863L56.3618 39.4489H49.2522L47.367 31.2553H37.0706L34.9678 39.4489H27.8002ZM38.4302 24.6787H45.8153L42.1898 8.94408H42.081L38.4302 24.6787ZM72.4155 16.2204L78.7202 0.536572H86.6491L76.0265 23.7179V39.4489H68.587V23.7179L57.9752 0.536572H65.8932L72.4155 16.2204ZM93.853 39.4489V0.536572H101.292V32.8759H113.257V39.4489H93.853ZM120.366 13.0518C120.366 3.45872 125.442 0 132.657 0C139.871 0 144.943 3.44784 144.943 13.0518V26.9482C144.943 36.5413 139.868 40 132.657 40C125.445 40 120.366 36.5522 120.366 26.9482V13.0518ZM127.806 27.9163C127.806 32.2233 129.691 33.4125 132.657 33.4125C135.622 33.4125 137.493 32.227 137.493 27.9163V12.0729C137.493 7.75854 135.608 6.57663 132.646 6.57663C129.684 6.57663 127.795 7.75854 127.795 12.0729L127.806 27.9163ZM171.652 39.4489L165.188 23.6055H161.631V39.4489H154.192V0.536572H164.96C173.907 0.536572 178.167 4.85453 178.167 12.178C178.167 17.0289 176.442 20.5166 172.294 22.0973L179.625 39.4489H171.652ZM161.628 17.4603H165.453C168.741 17.4603 170.735 15.8434 170.735 12.0729C170.735 8.30237 168.737 6.6854 165.453 6.6854H161.628V17.4603ZM222.025 11.3732C220.785 7.70779 219.168 6.1452 216.587 6.1452C214.005 6.1452 212.493 7.75854 212.493 10.3979C212.493 16.2784 229.091 16.7062 229.091 28.8879C229.091 35.5697 224.512 39.9891 216.699 39.9891C210.659 39.9891 205.971 36.7008 203.981 29.0438L211.308 27.4812C212.171 32.1762 214.861 33.8439 217.072 33.8439C219.665 33.8439 221.655 32.1182 221.655 29.2033C221.655 21.8762 205.058 21.7711 205.058 10.8837C205.058 4.20194 209.046 0.00725097 216.75 0.00725097C223.381 0.00725097 227.42 3.9409 228.714 9.43352L222.025 11.3732ZM261.3 0.536572V7.11321H252.624V39.4489H245.184V7.11321H236.509V0.536572H261.3ZM269.374 39.4489V0.536572H276.813V39.4489H269.374ZM309.678 0.536572V7.11321H301.002V39.4489H293.567V7.11321H284.887V0.536572H309.678ZM324.119 27.9163C324.119 32.2233 326 33.4125 328.966 33.4125C331.931 33.4125 333.817 32.227 333.817 27.9163V25.3277H341.253V26.9482C341.253 36.5413 336.177 40 328.969 40C321.762 40 316.679 36.5522 316.679 26.9482V13.0518C316.679 3.45872 321.755 0 328.969 0C336.184 0 341.253 3.44784 341.253 13.0518V13.1605H333.817V12.0729C333.817 7.75854 331.931 6.57663 328.966 6.57663C326 6.57663 324.119 7.75854 324.119 12.0729V27.9163ZM350.947 39.4489V0.536572H358.379V16.0609H368.893V0.536572H376.326V39.4489H368.89V22.6303H358.376V39.4453L350.947 39.4489Z" fill="#F4EEED"/>
</g>
<defs>
<clipPath id="clip0">
<rect width="376.326" height="40" fill="white"/>
</clipPath>
</defs>
</svg>
